<svg width="469" height="152" viewBox="0 0 469 152" fill="none" xmlns="http://www.w3.org/2000/svg">
<path d="M13.72 106H44.2C46 106 45.76 103.36 44.2 102.4C38.8 99.16 39.16 81.52 39.16 65.8H66.76C66.76 81.64 66.4 99.52 61.72 102.4C60.16 103.36 59.92 106 61.72 106H92.2C94 106 93.76 103.36 92.2 102.4C86.56 99.04 87.16 80.2 87.16 64C87.16 47.8 86.92 28.84 92.2 25.6C93.88 24.64 94 22 92.2 22H61.72C59.92 22 60.16 24.64 61.72 25.6C67.12 28.84 66.76 46.48 66.76 62.2H39.16C39.16 46.48 39.16 28.72 44.2 25.6C45.88 24.64 46 22 44.2 22H13.72C11.92 22 12.16 24.64 13.72 25.6C19.36 28.96 18.76 47.8 18.76 64C18.76 80.2 18.64 99.4 13.72 102.4C12.16 103.36 11.92 106 13.72 106ZM100.218 106H130.698C132.498 106 132.258 103.36 130.698 102.4C125.058 99.04 125.658 93.4 125.658 87.4V47.2C125.658 45.16 124.218 43.84 122.178 44.08L100.218 46C98.4184 46.12 98.6584 48.64 100.218 49.6C104.898 52.48 105.258 56.92 105.258 62.44V87.28C105.258 93.4 105.138 99.4 100.218 102.4C98.6584 103.36 98.4184 106 100.218 106ZM115.458 40.72C121.338 40.72 126.018 36.04 126.018 30.16C126.018 24.28 121.338 19.6 115.458 19.6C109.578 19.6 104.898 24.28 104.898 30.16C104.898 36.04 109.578 40.72 115.458 40.72ZM137.079 94.12C139.479 105.16 157.719 108.4 167.319 108.4C182.559 108.4 197.079 102.76 197.079 90.28C197.079 74.68 159.879 72.04 159.879 53.8C159.879 51.4 160.839 47.44 164.679 47.44C168.639 47.44 171.159 52.24 177.039 61.6C179.439 65.32 182.679 66.88 185.679 66.88C191.439 66.88 196.359 61.24 193.479 54.76C190.239 47.2 178.119 43.72 169.359 43.72C150.039 43.72 139.479 49.72 139.479 60.88C139.479 80.32 176.799 83.68 176.799 98.2C176.799 101.56 174.639 104.56 170.319 104.56C163.599 104.56 156.759 96.04 153.879 88.96C152.319 85.24 149.199 83.56 146.079 83.56C140.919 83.56 135.759 87.88 137.079 94.12ZM199.094 49.6H201.854V89.32C201.854 100.36 211.574 106 223.694 106C229.094 106 228.854 103.36 227.294 102.4C221.654 99.04 222.254 83.68 222.254 73.48V49.6H232.574C233.654 49.6 234.374 49 234.374 47.8C234.374 46.72 233.654 46 232.574 46H222.254V28.48C222.254 27.4 221.414 26.8 220.454 26.8C219.614 26.8 218.654 27.4 218.654 28.48C218.654 40.36 210.494 46 201.854 46H199.094C198.014 46 197.294 46.72 197.294 47.8C197.294 48.88 198.014 49.6 199.094 49.6ZM266.988 108.4C284.748 108.4 299.268 93.64 299.268 76C299.268 58.24 284.628 43.72 266.988 43.72C249.228 43.72 234.588 58.24 234.588 76C234.588 93.64 249.228 108.4 266.988 108.4ZM254.508 50.08C255.468 49.6 256.548 49.36 257.628 49.36C264.468 49.36 272.148 59.2 277.668 70.84C284.028 84.16 286.908 98.32 279.468 101.92C278.508 102.4 277.428 102.64 276.348 102.64C269.388 102.64 261.708 92.8 256.068 81.16C249.827 67.72 247.068 53.68 254.508 50.08ZM303.187 106H333.667C335.467 106 335.227 103.36 333.667 102.4C328.027 99.04 328.627 93.4 328.627 87.4V47.2C328.627 45.16 327.187 43.84 325.147 44.08L303.187 46C301.387 46.12 301.627 48.64 303.187 49.6C307.867 52.48 308.227 56.92 308.227 62.44V87.28C308.227 93.4 308.107 99.4 303.187 102.4C301.627 103.36 301.387 106 303.187 106ZM318.427 40.72C324.307 40.72 328.987 36.04 328.987 30.16C328.987 24.28 324.307 19.6 318.427 19.6C312.547 19.6 307.867 24.28 307.867 30.16C307.867 36.04 312.547 40.72 318.427 40.72ZM342.328 49.48C347.008 52.24 347.368 60.04 347.368 66.28V82.6C347.368 88.72 347.248 99.4 342.328 102.4C340.768 103.36 340.528 106 342.328 106H372.808C374.608 106 374.368 103.36 372.808 102.4C367.168 99.04 367.768 83.68 367.768 73.48V70.36C367.888 69.16 371.488 52.12 379.288 52.12C385.648 52.12 385.168 63.76 394.168 63.76C406.768 63.76 409.528 43.72 390.328 43.72C380.368 43.72 371.608 49 367.768 58.24V47.2C367.768 45.16 366.328 43.84 364.288 43.96L342.328 45.88C340.528 46 340.768 48.52 342.328 49.48ZM438.084 108.4C452.364 108.4 462.804 98.32 466.044 91.48C467.004 89.32 466.164 88 464.844 88C464.004 88 463.164 88.48 462.444 89.56C460.764 92.08 455.484 98.56 446.124 98.56C434.484 98.56 426.804 85.12 423.204 73H462.684C465.564 73 467.124 70.96 466.164 68.68C463.884 60.52 456.564 43.72 436.284 43.72C420.444 43.72 405.564 56.92 405.564 76.24C405.564 95.2 421.524 108.4 438.084 108.4ZM422.244 69.4C421.404 65.56 420.924 62.08 420.924 59.44C420.924 52.84 424.884 48.52 431.124 48.52C441.084 48.52 447.444 62.56 449.964 69.4H422.244Z" fill="#105652"/>
<g clip-path="url(#clip0_67_1782)">
<path d="M13.72 106H44.2C46 106 45.76 103.36 44.2 102.4C38.8 99.16 39.16 81.52 39.16 65.8H66.76C66.76 81.64 66.4 99.52 61.72 102.4C60.16 103.36 59.92 106 61.72 106H92.2C94 106 93.76 103.36 92.2 102.4C86.56 99.04 87.16 80.2 87.16 64C87.16 47.8 86.92 28.84 92.2 25.6C93.88 24.64 94 22 92.2 22H61.72C59.92 22 60.16 24.64 61.72 25.6C67.12 28.84 66.76 46.48 66.76 62.2H39.16C39.16 46.48 39.16 28.72 44.2 25.6C45.88 24.64 46 22 44.2 22H13.72C11.92 22 12.16 24.64 13.72 25.6C19.36 28.96 18.76 47.8 18.76 64C18.76 80.2 18.64 99.4 13.72 102.4C12.16 103.36 11.92 106 13.72 106ZM100.218 106H130.698C132.498 106 132.258 103.36 130.698 102.4C125.058 99.04 125.658 93.4 125.658 87.4V47.2C125.658 45.16 124.218 43.84 122.178 44.08L100.218 46C98.4184 46.12 98.6584 48.64 100.218 49.6C104.898 52.48 105.258 56.92 105.258 62.44V87.28C105.258 93.4 105.138 99.4 100.218 102.4C98.6584 103.36 98.4184 106 100.218 106ZM115.458 40.72C121.338 40.72 126.018 36.04 126.018 30.16C126.018 24.28 121.338 19.6 115.458 19.6C109.578 19.6 104.898 24.28 104.898 30.16C104.898 36.04 109.578 40.72 115.458 40.72ZM137.079 94.12C139.479 105.16 157.719 108.4 167.319 108.4C182.559 108.4 197.079 102.76 197.079 90.28C197.079 74.68 159.879 72.04 159.879 53.8C159.879 51.4 160.839 47.44 164.679 47.44C168.639 47.44 171.159 52.24 177.039 61.6C179.439 65.32 182.679 66.88 185.679 66.88C191.439 66.88 196.359 61.24 193.479 54.76C190.239 47.2 178.119 43.72 169.359 43.72C150.039 43.72 139.479 49.72 139.479 60.88C139.479 80.32 176.799 83.68 176.799 98.2C176.799 101.56 174.639 104.56 170.319 104.56C163.599 104.56 156.759 96.04 153.879 88.96C152.319 85.24 149.199 83.56 146.079 83.56C140.919 83.56 135.759 87.88 137.079 94.12ZM199.094 49.6H201.854V89.32C201.854 100.36 211.574 106 223.694 106C229.094 106 228.854 103.36 227.294 102.4C221.654 99.04 222.254 83.68 222.254 73.48V49.6H232.574C233.654 49.6 234.374 49 234.374 47.8C234.374 46.72 233.654 46 232.574 46H222.254V28.48C222.254 27.4 221.414 26.8 220.454 26.8C219.614 26.8 218.654 27.4 218.654 28.48C218.654 40.36 210.494 46 201.854 46H199.094C198.014 46 197.294 46.72 197.294 47.8C197.294 48.88 198.014 49.6 199.094 49.6ZM266.988 108.4C284.748 108.4 299.268 93.64 299.268 76C299.268 58.24 284.628 43.72 266.988 43.72C249.228 43.72 234.588 58.24 234.588 76C234.588 93.64 249.228 108.4 266.988 108.4ZM254.508 50.08C255.468 49.6 256.548 49.36 257.628 49.36C264.468 49.36 272.148 59.2 277.668 70.84C284.028 84.16 286.908 98.32 279.468 101.92C278.508 102.4 277.428 102.64 276.348 102.64C269.388 102.64 261.708 92.8 256.068 81.16C249.827 67.72 247.068 53.68 254.508 50.08ZM303.187 106H333.667C335.467 106 335.227 103.36 333.667 102.4C328.027 99.04 328.627 93.4 328.627 87.4V47.2C328.627 45.16 327.187 43.84 325.147 44.08L303.187 46C301.387 46.12 301.627 48.64 303.187 49.6C307.867 52.48 308.227 56.92 308.227 62.44V87.28C308.227 93.4 308.107 99.4 303.187 102.4C301.627 103.36 301.387 106 303.187 106ZM318.427 40.72C324.307 40.72 328.987 36.04 328.987 30.16C328.987 24.28 324.307 19.6 318.427 19.6C312.547 19.6 307.867 24.28 307.867 30.16C307.867 36.04 312.547 40.72 318.427 40.72ZM342.328 49.48C347.008 52.24 347.368 60.04 347.368 66.28V82.6C347.368 88.72 347.248 99.4 342.328 102.4C340.768 103.36 340.528 106 342.328 106H372.808C374.608 106 374.368 103.36 372.808 102.4C367.168 99.04 367.768 83.68 367.768 73.48V70.36C367.888 69.16 371.488 52.12 379.288 52.12C385.648 52.12 385.168 63.76 394.168 63.76C406.768 63.76 409.528 43.72 390.328 43.72C380.368 43.72 371.608 49 367.768 58.24V47.2C367.768 45.16 366.328 43.84 364.288 43.96L342.328 45.88C340.528 46 340.768 48.52 342.328 49.48ZM438.084 108.4C452.364 108.4 462.804 98.32 466.044 91.48C467.004 89.32 466.164 88 464.844 88C464.004 88 463.164 88.48 462.444 89.56C460.764 92.08 455.484 98.56 446.124 98.56C434.484 98.56 426.804 85.12 423.204 73H462.684C465.564 73 467.124 70.96 466.164 68.68C463.884 60.52 456.564 43.72 436.284 43.72C420.444 43.72 405.564 56.92 405.564 76.24C405.564 95.2 421.524 108.4 438.084 108.4ZM422.244 69.4C421.404 65.56 420.924 62.08 420.924 59.44C420.924 52.84 424.884 48.52 431.124 48.52C441.084 48.52 447.444 62.56 449.964 69.4H422.244Z" fill="white"/>
</g>
<defs>
<clipPath id="clip0_67_1782">
<rect width="267" height="152" fill="white"/>
</clipPath>
</defs>
</svg>
