<svg width="322" height="142" viewBox="0 0 322 142" fill="none" xmlns="http://www.w3.org/2000/svg">
<path d="M3.72 96H19.8C21.6 96 21.36 93.36 19.8 92.4C13.8 88.8 13.56 71.76 13.56 54.12C13.56 45.48 13.56 36.84 14.4 29.88L53.04 94.44C53.64 95.4 54.72 96 55.8 96H72.96C74.76 96 75.96 92.76 72.96 90.84C68.64 88.2 68.04 70.2 68.04 56.16C68.04 42.12 68.28 19.2 74.28 15.6C75.96 14.64 76.08 12 74.28 12H58.2C56.4 12 56.64 14.64 58.2 15.6C64.2 19.2 64.44 42.12 64.44 56.16C64.44 63.12 64.44 71.16 63.6 78L25.08 13.56C24.48 12.6 23.4 12 22.32 12H3.72C1.92 12 2.16 14.64 3.72 15.6C9.72 19.2 9.96 36.48 9.96 54.12C9.96 71.76 9.72 88.8 3.72 92.4C2.16 93.36 1.92 96 3.72 96ZM110.738 98.4C128.498 98.4 143.018 83.64 143.018 66C143.018 48.24 128.378 33.72 110.738 33.72C92.9775 33.72 78.3375 48.24 78.3375 66C78.3375 83.64 92.9775 98.4 110.738 98.4ZM98.2575 40.08C99.2175 39.6 100.298 39.36 101.378 39.36C108.218 39.36 115.898 49.2 121.418 60.84C127.778 74.16 130.658 88.32 123.218 91.92C122.258 92.4 121.178 92.64 120.098 92.64C113.138 92.64 105.458 82.8 99.8175 71.16C93.5775 57.72 90.8175 43.68 98.2575 40.08ZM144.563 39.6H147.323V79.32C147.323 90.36 157.043 96 169.163 96C174.563 96 174.323 93.36 172.763 92.4C167.123 89.04 167.723 73.68 167.723 63.48V39.6H178.043C179.123 39.6 179.843 39 179.843 37.8C179.843 36.72 179.123 36 178.043 36H167.723V18.48C167.723 17.4 166.883 16.8 165.923 16.8C165.083 16.8 164.123 17.4 164.123 18.48C164.123 30.36 155.963 36 147.323 36H144.563C143.483 36 142.763 36.72 142.763 37.8C142.763 38.88 143.483 39.6 144.563 39.6ZM185.375 39.48C190.055 42.24 190.415 50.04 190.415 56.28V72.6C190.415 78.72 190.295 89.4 185.375 92.4C183.815 93.36 183.575 96 185.375 96H215.855C217.655 96 217.415 93.36 215.855 92.4C210.215 89.04 210.815 73.68 210.815 63.48V60.36C210.935 59.16 214.535 42.12 222.335 42.12C228.695 42.12 228.215 53.76 237.215 53.76C249.815 53.76 252.575 33.72 233.375 33.72C223.415 33.72 214.655 39 210.815 48.24V37.2C210.815 35.16 209.375 33.84 207.335 33.96L185.375 35.88C183.575 36 183.815 38.52 185.375 39.48ZM281.131 98.4C295.411 98.4 305.851 88.32 309.091 81.48C310.051 79.32 309.211 78 307.891 78C307.051 78 306.211 78.48 305.491 79.56C303.811 82.08 298.531 88.56 289.171 88.56C277.531 88.56 269.851 75.12 266.251 63H305.731C308.611 63 310.171 60.96 309.211 58.68C306.931 50.52 299.611 33.72 279.331 33.72C263.491 33.72 248.611 46.92 248.611 66.24C248.611 85.2 264.571 98.4 281.131 98.4ZM265.291 59.4C264.451 55.56 263.971 52.08 263.971 49.44C263.971 42.84 267.931 38.52 274.171 38.52C284.131 38.52 290.491 52.56 293.011 59.4H265.291Z" fill="#E7680E"/>
<g clip-path="url(#clip0_67_1786)">
<path d="M3.88406 96H19.9641C21.7641 96 21.5241 93.36 19.9641 92.4C13.9641 88.8 13.7241 71.76 13.7241 54.12C13.7241 45.48 13.7241 36.84 14.5641 29.88L53.2041 94.44C53.8041 95.4 54.8841 96 55.9641 96H73.1241C74.9241 96 76.1241 92.76 73.1241 90.84C68.8041 88.2 68.2041 70.2 68.2041 56.16C68.2041 42.12 68.4441 19.2 74.4441 15.6C76.1241 14.64 76.2441 12 74.4441 12H58.3641C56.5641 12 56.8041 14.64 58.3641 15.6C64.3641 19.2 64.6041 42.12 64.6041 56.16C64.6041 63.12 64.6041 71.16 63.7641 78L25.2441 13.56C24.6441 12.6 23.5641 12 22.4841 12H3.88406C2.08406 12 2.32406 14.64 3.88406 15.6C9.88406 19.2 10.1241 36.48 10.1241 54.12C10.1241 71.76 9.88406 88.8 3.88406 92.4C2.32406 93.36 2.08406 96 3.88406 96ZM110.902 98.4C128.662 98.4 143.182 83.64 143.182 66C143.182 48.24 128.542 33.72 110.902 33.72C93.1416 33.72 78.5016 48.24 78.5016 66C78.5016 83.64 93.1416 98.4 110.902 98.4ZM98.4216 40.08C99.3816 39.6 100.462 39.36 101.542 39.36C108.382 39.36 116.062 49.2 121.582 60.84C127.942 74.16 130.822 88.32 123.382 91.92C122.422 92.4 121.342 92.64 120.262 92.64C113.302 92.64 105.622 82.8 99.9816 71.16C93.7416 57.72 90.9816 43.68 98.4216 40.08ZM144.727 39.6H147.487V79.32C147.487 90.36 157.207 96 169.327 96C174.727 96 174.487 93.36 172.927 92.4C167.287 89.04 167.887 73.68 167.887 63.48V39.6H178.207C179.287 39.6 180.007 39 180.007 37.8C180.007 36.72 179.287 36 178.207 36H167.887V18.48C167.887 17.4 167.047 16.8 166.087 16.8C165.247 16.8 164.287 17.4 164.287 18.48C164.287 30.36 156.127 36 147.487 36H144.727C143.647 36 142.927 36.72 142.927 37.8C142.927 38.88 143.647 39.6 144.727 39.6ZM185.539 39.48C190.219 42.24 190.579 50.04 190.579 56.28V72.6C190.579 78.72 190.459 89.4 185.539 92.4C183.979 93.36 183.739 96 185.539 96H216.019C217.819 96 217.579 93.36 216.019 92.4C210.379 89.04 210.979 73.68 210.979 63.48V60.36C211.099 59.16 214.699 42.12 222.499 42.12C228.859 42.12 228.379 53.76 237.379 53.76C249.979 53.76 252.739 33.72 233.539 33.72C223.579 33.72 214.819 39 210.979 48.24V37.2C210.979 35.16 209.539 33.84 207.499 33.96L185.539 35.88C183.739 36 183.979 38.52 185.539 39.48ZM281.295 98.4C295.575 98.4 306.015 88.32 309.255 81.48C310.215 79.32 309.375 78 308.055 78C307.215 78 306.375 78.48 305.655 79.56C303.975 82.08 298.695 88.56 289.335 88.56C277.695 88.56 270.015 75.12 266.415 63H305.895C308.775 63 310.335 60.96 309.375 58.68C307.095 50.52 299.775 33.72 279.495 33.72C263.655 33.72 248.775 46.92 248.775 66.24C248.775 85.2 264.735 98.4 281.295 98.4ZM265.455 59.4C264.615 55.56 264.135 52.08 264.135 49.44C264.135 42.84 268.095 38.52 274.335 38.52C284.295 38.52 290.655 52.56 293.175 59.4H265.455Z" fill="white"/>
</g>
<defs>
<clipPath id="clip0_67_1786">
<rect width="209" height="76" fill="white" transform="translate(113 66)"/>
</clipPath>
</defs>
</svg>
